# Wavefront OBJ file automatically generated by Tiled2Unity

# Vertices (Count = 272)
v -224 -16 0
v -240 -16 0
v -240 0 0
v -224 0 0
v -208 -16 0
v -208 0 0
v -192 -16 0
v -192 0 0
v -176 -16 0
v -176 0 0
v -160 -16 0
v -160 0 0
v -144 -16 0
v -144 0 0
v -128 -16 0
v -128 0 0
v -112 -16 0
v -112 0 0
v -96 -16 0
v -96 0 0
v -80 -16 0
v -80 0 0
v -64 -16 0
v -64 0 0
v -48 -16 0
v -48 0 0
v -32 -16 0
v -32 0 0
v -16 -16 0
v -16 0 0
v 0 -16 0
v 0 0 0
v -224 -32 0
v -240 -32 0
v -208 -32 0
v -192 -32 0
v -176 -32 0
v -160 -32 0
v -144 -32 0
v -128 -32 0
v -112 -32 0
v -96 -32 0
v -80 -32 0
v -64 -32 0
v -48 -32 0
v -32 -32 0
v -16 -32 0
v 0 -32 0
v -224 -48 0
v -240 -48 0
v -208 -48 0
v -192 -48 0
v -176 -48 0
v -160 -48 0
v -144 -48 0
v -128 -48 0
v -112 -48 0
v -96 -48 0
v -80 -48 0
v -64 -48 0
v -48 -48 0
v -32 -48 0
v -16 -48 0
v 0 -48 0
v -224 -64 0
v -240 -64 0
v -208 -64 0
v -192 -64 0
v -176 -64 0
v -160 -64 0
v -144 -64 0
v -128 -64 0
v -112 -64 0
v -96 -64 0
v -80 -64 0
v -64 -64 0
v -48 -64 0
v -32 -64 0
v -16 -64 0
v 0 -64 0
v -224 -80 0
v -240 -80 0
v -208 -80 0
v -192 -80 0
v -176 -80 0
v -160 -80 0
v -144 -80 0
v -128 -80 0
v -112 -80 0
v -96 -80 0
v -80 -80 0
v -64 -80 0
v -48 -80 0
v -32 -80 0
v -16 -80 0
v 0 -80 0
v -224 -96 0
v -240 -96 0
v -208 -96 0
v -192 -96 0
v -176 -96 0
v -160 -96 0
v -144 -96 0
v -128 -96 0
v -112 -96 0
v -96 -96 0
v -80 -96 0
v -64 -96 0
v -48 -96 0
v -32 -96 0
v -16 -96 0
v 0 -96 0
v -224 -112 0
v -240 -112 0
v -208 -112 0
v -192 -112 0
v -176 -112 0
v -160 -112 0
v -144 -112 0
v -128 -112 0
v -112 -112 0
v -96 -112 0
v -80 -112 0
v -64 -112 0
v -48 -112 0
v -32 -112 0
v -16 -112 0
v 0 -112 0
v -224 -128 0
v -240 -128 0
v -208 -128 0
v -192 -128 0
v -176 -128 0
v -160 -128 0
v -144 -128 0
v -128 -128 0
v -112 -128 0
v -96 -128 0
v -80 -128 0
v -64 -128 0
v -48 -128 0
v -32 -128 0
v -16 -128 0
v 0 -128 0
v -224 -144 0
v -240 -144 0
v -208 -144 0
v -192 -144 0
v -176 -144 0
v -160 -144 0
v -144 -144 0
v -128 -144 0
v -112 -144 0
v -96 -144 0
v -80 -144 0
v -64 -144 0
v -48 -144 0
v -32 -144 0
v -16 -144 0
v 0 -144 0
v -224 -160 0
v -240 -160 0
v -208 -160 0
v -192 -160 0
v -176 -160 0
v -160 -160 0
v -144 -160 0
v -128 -160 0
v -112 -160 0
v -96 -160 0
v -80 -160 0
v -64 -160 0
v -48 -160 0
v -32 -160 0
v -16 -160 0
v 0 -160 0
v -224 -176 0
v -240 -176 0
v -208 -176 0
v -192 -176 0
v -176 -176 0
v -160 -176 0
v -144 -176 0
v -128 -176 0
v -112 -176 0
v -96 -176 0
v -80 -176 0
v -64 -176 0
v -48 -176 0
v -32 -176 0
v -16 -176 0
v 0 -176 0
v -224 -192 0
v -240 -192 0
v -208 -192 0
v -192 -192 0
v -176 -192 0
v -160 -192 0
v -144 -192 0
v -128 -192 0
v -112 -192 0
v -96 -192 0
v -80 -192 0
v -64 -192 0
v -48 -192 0
v -32 -192 0
v -16 -192 0
v 0 -192 0
v -224 -208 0
v -240 -208 0
v -208 -208 0
v -192 -208 0
v -176 -208 0
v -160 -208 0
v -144 -208 0
v -128 -208 0
v -112 -208 0
v -96 -208 0
v -80 -208 0
v -64 -208 0
v -48 -208 0
v -32 -208 0
v -16 -208 0
v 0 -208 0
v -224 -224 0
v -240 -224 0
v -208 -224 0
v -192 -224 0
v -176 -224 0
v -160 -224 0
v -144 -224 0
v -128 -224 0
v -112 -224 0
v -96 -224 0
v -80 -224 0
v -64 -224 0
v -48 -224 0
v -32 -224 0
v -16 -224 0
v 0 -224 0
v -224 -240 0
v -240 -240 0
v -208 -240 0
v -192 -240 0
v -176 -240 0
v -160 -240 0
v -144 -240 0
v -128 -240 0
v -112 -240 0
v -96 -240 0
v -80 -240 0
v -64 -240 0
v -48 -240 0
v -32 -240 0
v -16 -240 0
v 0 -240 0
v -224 -256 0
v -240 -256 0
v -208 -256 0
v -192 -256 0
v -176 -256 0
v -160 -256 0
v -144 -256 0
v -128 -256 0
v -112 -256 0
v -96 -256 0
v -80 -256 0
v -64 -256 0
v -48 -256 0
v -32 -256 0
v -16 -256 0
v 0 -256 0

# Texture cooridinates (Count = 96)
vt 0.2985557 0.5817528
vt 0.3150806 0.5817528
vt 0.3150806 0.6121635
vt 0.2985557 0.6121635
vt 0.2458698 0.5817528
vt 0.2623947 0.5817528
vt 0.2623947 0.6121635
vt 0.2458698 0.6121635
vt 0.2809938 0.5817528
vt 0.2975186 0.5817528
vt 0.2975186 0.6121635
vt 0.2809938 0.6121635
vt 0.2634318 0.5494334
vt 0.2799567 0.5494334
vt 0.2799567 0.5798442
vt 0.2634318 0.5798442
vt 0.3161177 0.4847946
vt 0.3326426 0.4847946
vt 0.3326426 0.5152054
vt 0.3161177 0.5152054
vt 0.1053739 0.9049467
vt 0.1218988 0.9049467
vt 0.1218988 0.9353575
vt 0.1053739 0.9353575
vt 0.2809938 0.03232312
vt 0.2975186 0.03232312
vt 0.2975186 0.06273395
vt 0.2809938 0.06273395
vt 0.4390516 0.7433497
vt 0.4555765 0.7433497
vt 0.4555765 0.7737606
vt 0.4390516 0.7737606
vt 0.4566136 0.7110304
vt 0.4731385 0.7110304
vt 0.4731385 0.7414411
vt 0.4566136 0.7414411
vt 0.4390516 0.7110304
vt 0.4555765 0.7110304
vt 0.4555765 0.7414411
vt 0.4390516 0.7414411
vt 0.7200434 0.9695855
vt 0.7365682 0.9695855
vt 0.7365682 0.9999963
vt 0.7200434 0.9999963
vt 0.4917375 0.8726273
vt 0.5082625 0.8726273
vt 0.5082625 0.9030381
vt 0.4917375 0.9030381
vt 0.4917375 0.8403079
vt 0.5082625 0.8403079
vt 0.5082625 0.8707187
vt 0.4917375 0.8707187
vt 0.2458698 0.8726273
vt 0.2623947 0.8726273
vt 0.2623947 0.9030381
vt 0.2458698 0.9030381
vt 0.5971094 0.6463915
vt 0.6136343 0.6463915
vt 0.6136343 0.6768024
vt 0.5971094 0.6768024
vt 0.3336797 0.8726273
vt 0.3502046 0.8726273
vt 0.3502046 0.9030381
vt 0.3336797 0.9030381
vt 0.3863657 0.8726273
vt 0.4028905 0.8726273
vt 0.4028905 0.9030381
vt 0.3863657 0.9030381
vt 0.3512417 0.7756691
vt 0.3677666 0.7756691
vt 0.3677666 0.8060799
vt 0.3512417 0.8060799
vt 0.3688037 0.7756691
vt 0.3853286 0.7756691
vt 0.3853286 0.8060799
vt 0.3688037 0.8060799
vt 0.3336797 0.7756691
vt 0.3502046 0.7756691
vt 0.3502046 0.8060799
vt 0.3336797 0.8060799
vt 0.3688037 0.8726273
vt 0.3853286 0.8726273
vt 0.3853286 0.9030381
vt 0.3688037 0.9030381
vt 0.3336797 0.8079885
vt 0.3502046 0.8079885
vt 0.3502046 0.8383994
vt 0.3336797 0.8383994
vt 0.7551673 0.1616006
vt 0.7716922 0.1616006
vt 0.7716922 0.1920115
vt 0.7551673 0.1920115
vt 0.7200434 0.1616006
vt 0.7365682 0.1616006
vt 0.7365682 0.1920115
vt 0.7200434 0.1920115

# Normal
vn 0 0 -1

# Groups (Count = 3)

g mesh_0001
f 1/1/1 2/2/1 3/3/1 4/4/1
f 5/5/1 1/6/1 4/7/1 6/8/1
f 7/5/1 5/6/1 6/7/1 8/8/1
f 9/5/1 7/6/1 8/7/1 10/8/1
f 11/5/1 9/6/1 10/7/1 12/8/1
f 13/5/1 11/6/1 12/7/1 14/8/1
f 15/5/1 13/6/1 14/7/1 16/8/1
f 17/5/1 15/6/1 16/7/1 18/8/1
f 19/5/1 17/6/1 18/7/1 20/8/1
f 21/5/1 19/6/1 20/7/1 22/8/1
f 23/5/1 21/6/1 22/7/1 24/8/1
f 25/5/1 23/6/1 24/7/1 26/8/1
f 27/5/1 25/6/1 26/7/1 28/8/1
f 29/5/1 27/6/1 28/7/1 30/8/1
f 31/9/1 29/10/1 30/11/1 32/12/1
f 33/13/1 34/14/1 2/15/1 1/16/1
f 35/17/1 33/18/1 1/19/1 5/20/1
f 36/17/1 35/18/1 5/19/1 7/20/1
f 37/17/1 36/18/1 7/19/1 9/20/1
f 38/17/1 37/18/1 9/19/1 11/20/1
f 39/17/1 38/18/1 11/19/1 13/20/1
f 40/17/1 39/18/1 13/19/1 15/20/1
f 41/17/1 40/18/1 15/19/1 17/20/1
f 42/17/1 41/18/1 17/19/1 19/20/1
f 43/17/1 42/18/1 19/19/1 21/20/1
f 44/17/1 43/18/1 21/19/1 23/20/1
f 45/17/1 44/18/1 23/19/1 25/20/1
f 46/17/1 45/18/1 25/19/1 27/20/1
f 47/17/1 46/18/1 27/19/1 29/20/1
f 48/13/1 47/14/1 29/15/1 31/16/1
f 49/13/1 50/14/1 34/15/1 33/16/1
f 51/17/1 49/18/1 33/19/1 35/20/1
f 52/17/1 51/18/1 35/19/1 36/20/1
f 53/17/1 52/18/1 36/19/1 37/20/1
f 54/17/1 53/18/1 37/19/1 38/20/1
f 55/17/1 54/18/1 38/19/1 39/20/1
f 56/17/1 55/18/1 39/19/1 40/20/1
f 57/17/1 56/18/1 40/19/1 41/20/1
f 58/17/1 57/18/1 41/19/1 42/20/1
f 59/17/1 58/18/1 42/19/1 43/20/1
f 60/17/1 59/18/1 43/19/1 44/20/1
f 61/17/1 60/18/1 44/19/1 45/20/1
f 62/17/1 61/18/1 45/19/1 46/20/1
f 63/17/1 62/18/1 46/19/1 47/20/1
f 64/13/1 63/14/1 47/15/1 48/16/1
f 65/13/1 66/14/1 50/15/1 49/16/1
f 67/17/1 65/18/1 49/19/1 51/20/1
f 68/17/1 67/18/1 51/19/1 52/20/1
f 69/17/1 68/18/1 52/19/1 53/20/1
f 70/17/1 69/18/1 53/19/1 54/20/1
f 71/17/1 70/18/1 54/19/1 55/20/1
f 72/17/1 71/18/1 55/19/1 56/20/1
f 73/17/1 72/18/1 56/19/1 57/20/1
f 74/17/1 73/18/1 57/19/1 58/20/1
f 75/17/1 74/18/1 58/19/1 59/20/1
f 76/17/1 75/18/1 59/19/1 60/20/1
f 77/17/1 76/18/1 60/19/1 61/20/1
f 78/17/1 77/18/1 61/19/1 62/20/1
f 79/17/1 78/18/1 62/19/1 63/20/1
f 80/13/1 79/14/1 63/15/1 64/16/1
f 81/13/1 82/14/1 66/15/1 65/16/1
f 83/21/1 81/22/1 65/23/1 67/24/1
f 84/21/1 83/22/1 67/23/1 68/24/1
f 85/21/1 84/22/1 68/23/1 69/24/1
f 86/21/1 85/22/1 69/23/1 70/24/1
f 87/21/1 86/22/1 70/23/1 71/24/1
f 88/21/1 87/22/1 71/23/1 72/24/1
f 89/21/1 88/22/1 72/23/1 73/24/1
f 90/21/1 89/22/1 73/23/1 74/24/1
f 91/21/1 90/22/1 74/23/1 75/24/1
f 92/21/1 91/22/1 75/23/1 76/24/1
f 93/21/1 92/22/1 76/23/1 77/24/1
f 94/21/1 93/22/1 77/23/1 78/24/1
f 95/21/1 94/22/1 78/23/1 79/24/1
f 96/13/1 95/14/1 79/15/1 80/16/1
f 97/13/1 98/14/1 82/15/1 81/16/1
f 99/21/1 97/22/1 81/23/1 83/24/1
f 100/21/1 99/22/1 83/23/1 84/24/1
f 101/21/1 100/22/1 84/23/1 85/24/1
f 102/21/1 101/22/1 85/23/1 86/24/1
f 103/21/1 102/22/1 86/23/1 87/24/1
f 104/21/1 103/22/1 87/23/1 88/24/1
f 105/21/1 104/22/1 88/23/1 89/24/1
f 106/21/1 105/22/1 89/23/1 90/24/1
f 107/21/1 106/22/1 90/23/1 91/24/1
f 108/21/1 107/22/1 91/23/1 92/24/1
f 109/21/1 108/22/1 92/23/1 93/24/1
f 110/21/1 109/22/1 93/23/1 94/24/1
f 111/21/1 110/22/1 94/23/1 95/24/1
f 112/13/1 111/14/1 95/15/1 96/16/1
f 113/13/1 114/14/1 98/15/1 97/16/1
f 115/21/1 113/22/1 97/23/1 99/24/1
f 116/21/1 115/22/1 99/23/1 100/24/1
f 117/21/1 116/22/1 100/23/1 101/24/1
f 118/21/1 117/22/1 101/23/1 102/24/1
f 119/21/1 118/22/1 102/23/1 103/24/1
f 120/21/1 119/22/1 103/23/1 104/24/1
f 121/21/1 120/22/1 104/23/1 105/24/1
f 122/21/1 121/22/1 105/23/1 106/24/1
f 123/21/1 122/22/1 106/23/1 107/24/1
f 124/21/1 123/22/1 107/23/1 108/24/1
f 125/21/1 124/22/1 108/23/1 109/24/1
f 126/21/1 125/22/1 109/23/1 110/24/1
f 127/21/1 126/22/1 110/23/1 111/24/1
f 128/13/1 127/14/1 111/15/1 112/16/1
f 129/13/1 130/14/1 114/15/1 113/16/1
f 131/21/1 129/22/1 113/23/1 115/24/1
f 132/21/1 131/22/1 115/23/1 116/24/1
f 133/21/1 132/22/1 116/23/1 117/24/1
f 134/21/1 133/22/1 117/23/1 118/24/1
f 135/21/1 134/22/1 118/23/1 119/24/1
f 136/21/1 135/22/1 119/23/1 120/24/1
f 137/21/1 136/22/1 120/23/1 121/24/1
f 138/21/1 137/22/1 121/23/1 122/24/1
f 139/21/1 138/22/1 122/23/1 123/24/1
f 140/21/1 139/22/1 123/23/1 124/24/1
f 141/21/1 140/22/1 124/23/1 125/24/1
f 142/21/1 141/22/1 125/23/1 126/24/1
f 143/21/1 142/22/1 126/23/1 127/24/1
f 144/13/1 143/14/1 127/15/1 128/16/1
f 145/13/1 146/14/1 130/15/1 129/16/1
f 147/21/1 145/22/1 129/23/1 131/24/1
f 148/21/1 147/22/1 131/23/1 132/24/1
f 149/21/1 148/22/1 132/23/1 133/24/1
f 150/21/1 149/22/1 133/23/1 134/24/1
f 151/21/1 150/22/1 134/23/1 135/24/1
f 152/21/1 151/22/1 135/23/1 136/24/1
f 153/21/1 152/22/1 136/23/1 137/24/1
f 154/21/1 153/22/1 137/23/1 138/24/1
f 155/21/1 154/22/1 138/23/1 139/24/1
f 156/21/1 155/22/1 139/23/1 140/24/1
f 157/21/1 156/22/1 140/23/1 141/24/1
f 158/21/1 157/22/1 141/23/1 142/24/1
f 159/21/1 158/22/1 142/23/1 143/24/1
f 160/13/1 159/14/1 143/15/1 144/16/1
f 161/13/1 162/14/1 146/15/1 145/16/1
f 163/21/1 161/22/1 145/23/1 147/24/1
f 164/21/1 163/22/1 147/23/1 148/24/1
f 165/21/1 164/22/1 148/23/1 149/24/1
f 166/21/1 165/22/1 149/23/1 150/24/1
f 167/21/1 166/22/1 150/23/1 151/24/1
f 168/21/1 167/22/1 151/23/1 152/24/1
f 169/21/1 168/22/1 152/23/1 153/24/1
f 170/21/1 169/22/1 153/23/1 154/24/1
f 171/21/1 170/22/1 154/23/1 155/24/1
f 172/21/1 171/22/1 155/23/1 156/24/1
f 173/21/1 172/22/1 156/23/1 157/24/1
f 174/21/1 173/22/1 157/23/1 158/24/1
f 175/21/1 174/22/1 158/23/1 159/24/1
f 176/13/1 175/14/1 159/15/1 160/16/1
f 177/13/1 178/14/1 162/15/1 161/16/1
f 179/21/1 177/22/1 161/23/1 163/24/1
f 180/21/1 179/22/1 163/23/1 164/24/1
f 181/21/1 180/22/1 164/23/1 165/24/1
f 182/21/1 181/22/1 165/23/1 166/24/1
f 183/21/1 182/22/1 166/23/1 167/24/1
f 184/21/1 183/22/1 167/23/1 168/24/1
f 185/21/1 184/22/1 168/23/1 169/24/1
f 186/21/1 185/22/1 169/23/1 170/24/1
f 187/21/1 186/22/1 170/23/1 171/24/1
f 188/21/1 187/22/1 171/23/1 172/24/1
f 189/21/1 188/22/1 172/23/1 173/24/1
f 190/21/1 189/22/1 173/23/1 174/24/1
f 191/21/1 190/22/1 174/23/1 175/24/1
f 192/13/1 191/14/1 175/15/1 176/16/1
f 193/13/1 194/14/1 178/15/1 177/16/1
f 195/21/1 193/22/1 177/23/1 179/24/1
f 196/21/1 195/22/1 179/23/1 180/24/1
f 197/21/1 196/22/1 180/23/1 181/24/1
f 198/21/1 197/22/1 181/23/1 182/24/1
f 199/21/1 198/22/1 182/23/1 183/24/1
f 200/21/1 199/22/1 183/23/1 184/24/1
f 201/21/1 200/22/1 184/23/1 185/24/1
f 202/21/1 201/22/1 185/23/1 186/24/1
f 203/21/1 202/22/1 186/23/1 187/24/1
f 204/21/1 203/22/1 187/23/1 188/24/1
f 205/21/1 204/22/1 188/23/1 189/24/1
f 206/21/1 205/22/1 189/23/1 190/24/1
f 207/21/1 206/22/1 190/23/1 191/24/1
f 208/13/1 207/14/1 191/15/1 192/16/1
f 209/17/1 210/18/1 194/19/1 193/20/1
f 211/21/1 209/22/1 193/23/1 195/24/1
f 212/21/1 211/22/1 195/23/1 196/24/1
f 213/21/1 212/22/1 196/23/1 197/24/1
f 214/21/1 213/22/1 197/23/1 198/24/1
f 215/21/1 214/22/1 198/23/1 199/24/1
f 216/21/1 215/22/1 199/23/1 200/24/1
f 217/21/1 216/22/1 200/23/1 201/24/1
f 218/21/1 217/22/1 201/23/1 202/24/1
f 219/21/1 218/22/1 202/23/1 203/24/1
f 220/21/1 219/22/1 203/23/1 204/24/1
f 221/21/1 220/22/1 204/23/1 205/24/1
f 222/21/1 221/22/1 205/23/1 206/24/1
f 223/21/1 222/22/1 206/23/1 207/24/1
f 224/17/1 223/18/1 207/19/1 208/20/1
f 225/17/1 226/18/1 210/19/1 209/20/1
f 227/21/1 225/22/1 209/23/1 211/24/1
f 228/21/1 227/22/1 211/23/1 212/24/1
f 229/21/1 228/22/1 212/23/1 213/24/1
f 230/21/1 229/22/1 213/23/1 214/24/1
f 231/21/1 230/22/1 214/23/1 215/24/1
f 232/21/1 231/22/1 215/23/1 216/24/1
f 233/21/1 232/22/1 216/23/1 217/24/1
f 234/21/1 233/22/1 217/23/1 218/24/1
f 235/21/1 234/22/1 218/23/1 219/24/1
f 236/21/1 235/22/1 219/23/1 220/24/1
f 237/21/1 236/22/1 220/23/1 221/24/1
f 238/21/1 237/22/1 221/23/1 222/24/1
f 239/21/1 238/22/1 222/23/1 223/24/1
f 240/17/1 239/18/1 223/19/1 224/20/1
f 241/17/1 242/18/1 226/19/1 225/20/1
f 243/21/1 241/22/1 225/23/1 227/24/1
f 244/21/1 243/22/1 227/23/1 228/24/1
f 245/21/1 244/22/1 228/23/1 229/24/1
f 246/21/1 245/22/1 229/23/1 230/24/1
f 247/21/1 246/22/1 230/23/1 231/24/1
f 248/21/1 247/22/1 231/23/1 232/24/1
f 249/21/1 248/22/1 232/23/1 233/24/1
f 250/21/1 249/22/1 233/23/1 234/24/1
f 251/21/1 250/22/1 234/23/1 235/24/1
f 252/21/1 251/22/1 235/23/1 236/24/1
f 253/21/1 252/22/1 236/23/1 237/24/1
f 254/21/1 253/22/1 237/23/1 238/24/1
f 255/21/1 254/22/1 238/23/1 239/24/1
f 256/17/1 255/18/1 239/19/1 240/20/1

g mesh_0002
f 65/25/1 66/26/1 50/27/1 49/28/1
f 67/25/1 65/26/1 49/27/1 51/28/1
f 68/25/1 67/26/1 51/27/1 52/28/1
f 69/25/1 68/26/1 52/27/1 53/28/1
f 70/25/1 69/26/1 53/27/1 54/28/1
f 71/25/1 70/26/1 54/27/1 55/28/1
f 72/25/1 71/26/1 55/27/1 56/28/1
f 73/25/1 72/26/1 56/27/1 57/28/1
f 74/25/1 73/26/1 57/27/1 58/28/1
f 75/25/1 74/26/1 58/27/1 59/28/1
f 76/25/1 75/26/1 59/27/1 60/28/1
f 77/25/1 76/26/1 60/27/1 61/28/1
f 78/25/1 77/26/1 61/27/1 62/28/1
f 79/25/1 78/26/1 62/27/1 63/28/1
f 80/25/1 79/26/1 63/27/1 64/28/1
f 81/25/1 82/26/1 66/27/1 65/28/1
f 92/25/1 91/26/1 75/27/1 76/28/1
f 94/25/1 93/26/1 77/27/1 78/28/1
f 95/25/1 94/26/1 78/27/1 79/28/1
f 96/25/1 95/26/1 79/27/1 80/28/1
f 97/25/1 98/26/1 82/27/1 81/28/1
f 112/25/1 111/26/1 95/27/1 96/28/1
f 113/25/1 114/26/1 98/27/1 97/28/1
f 128/25/1 127/26/1 111/27/1 112/28/1
f 129/25/1 130/26/1 114/27/1 113/28/1
f 144/25/1 143/26/1 127/27/1 128/28/1
f 145/25/1 146/26/1 130/27/1 129/28/1
f 152/25/1 151/26/1 135/27/1 136/28/1
f 153/25/1 152/26/1 136/27/1 137/28/1
f 154/25/1 153/26/1 137/27/1 138/28/1
f 155/25/1 154/26/1 138/27/1 139/28/1
f 160/25/1 159/26/1 143/27/1 144/28/1
f 161/25/1 162/26/1 146/27/1 145/28/1
f 176/25/1 175/26/1 159/27/1 160/28/1
f 177/25/1 178/26/1 162/27/1 161/28/1
f 192/25/1 191/26/1 175/27/1 176/28/1
f 193/25/1 194/26/1 178/27/1 177/28/1
f 208/25/1 207/26/1 191/27/1 192/28/1
f 209/25/1 210/26/1 194/27/1 193/28/1
f 224/25/1 223/26/1 207/27/1 208/28/1
f 225/25/1 226/26/1 210/27/1 209/28/1
f 240/25/1 239/26/1 223/27/1 224/28/1
f 241/25/1 242/26/1 226/27/1 225/28/1
f 256/25/1 255/26/1 239/27/1 240/28/1
f 257/25/1 258/26/1 242/27/1 241/28/1
f 259/25/1 257/26/1 241/27/1 243/28/1
f 260/25/1 259/26/1 243/27/1 244/28/1
f 261/25/1 260/26/1 244/27/1 245/28/1
f 262/25/1 261/26/1 245/27/1 246/28/1
f 263/25/1 262/26/1 246/27/1 247/28/1
f 264/25/1 263/26/1 247/27/1 248/28/1
f 265/25/1 264/26/1 248/27/1 249/28/1
f 266/25/1 265/26/1 249/27/1 250/28/1
f 267/25/1 266/26/1 250/27/1 251/28/1
f 268/25/1 267/26/1 251/27/1 252/28/1
f 269/25/1 268/26/1 252/27/1 253/28/1
f 270/25/1 269/26/1 253/27/1 254/28/1
f 271/25/1 270/26/1 254/27/1 255/28/1
f 272/25/1 271/26/1 255/27/1 256/28/1

g mesh_0003
f 36/29/1 35/30/1 5/31/1 7/32/1
f 40/33/1 39/34/1 13/35/1 15/36/1
f 52/37/1 51/38/1 35/39/1 36/40/1
f 58/41/1 57/42/1 41/43/1 42/44/1
f 76/45/1 75/46/1 59/47/1 60/48/1
f 92/49/1 91/50/1 75/51/1 76/52/1
f 94/53/1 93/54/1 77/55/1 78/56/1
f 95/57/1 94/58/1 78/59/1 79/60/1
f 136/61/1 135/62/1 119/63/1 120/64/1
f 137/61/1 136/62/1 120/63/1 121/64/1
f 138/61/1 137/62/1 121/63/1 122/64/1
f 139/61/1 138/62/1 122/63/1 123/64/1
f 151/65/1 150/66/1 134/67/1 135/68/1
f 152/69/1 151/70/1 135/71/1 136/72/1
f 153/73/1 152/74/1 136/75/1 137/76/1
f 154/73/1 153/74/1 137/75/1 138/76/1
f 155/77/1 154/78/1 138/79/1 139/80/1
f 156/81/1 155/82/1 139/83/1 140/84/1
f 168/85/1 167/86/1 151/87/1 152/88/1
f 169/85/1 168/86/1 152/87/1 153/88/1
f 170/85/1 169/86/1 153/87/1 154/88/1
f 171/85/1 170/86/1 154/87/1 155/88/1
f 248/89/1 247/90/1 231/91/1 232/92/1
f 249/93/1 248/94/1 232/95/1 233/96/1

